<?xml version="1.0" encoding="UTF-8"?>
<svg version="1.1" xmlns="http://www.w3.org/2000/svg" width="3782" height="2618">
<path d="M0 0 C1.4513074 0.12515345 2.90264309 0.24997923 4.35400391 0.37451172 C83.060863 7.23621961 161.1620932 25.82654397 234.13037109 56.22375488 C235.95400488 56.98090343 237.78164745 57.72837373 239.609375 58.47558594 C271.06770935 71.37246365 302.1399079 86.465224 331.1262207 104.26293945 C333.33470231 105.59785973 335.55179916 106.90520778 337.78588867 108.19604492 C348.43522675 114.3584842 358.72675798 120.95087485 368.9375 127.8125 C369.72271027 128.33813538 370.50792053 128.86377075 371.31692505 129.40533447 C387.30662844 140.11040704 402.73921239 151.26093261 418 163 C418.33 108.55 418.66 54.1 419 -2 C540.77 -2 662.54 -2 788 -2 C788 494.98 788 991.96 788 1504 C666.23 1504 544.46 1504 419 1504 C418.67 1472.32 418.34 1440.64 418 1408 C411.4 1412.95 404.8 1417.9 398 1423 C378.23013689 1437.12133079 358.05628184 1450.85214509 337 1463 C336.25073242 1463.43554199 335.50146484 1463.87108398 334.72949219 1464.31982422 C328.51393249 1467.92929735 322.2674377 1471.48143848 316 1475 C314.6375415 1475.76570313 314.6375415 1475.76570313 313.24755859 1476.546875 C234.44380502 1520.60021739 147.06601606 1549.93913798 -278.30322266 1544.34967041 C-307.34448368 1536.02076054 -335.89855191 1526.31559022 -363.89453125 1514.95703125 C-365.00786898 1514.51477599 -366.1212067 1514.07252072 -367.26828194 1513.61686379 C-369.68866114 1512.61647328 -371.74373117 1511.55917994 -374.01847649 1510.21090597 C-387.62559524 1502.70274378 -402.87787771 1504.01420458 -417.95808816 1504.10919779 C-422.2125895 1504.12819657 -426.46692051 1504.10631726 -430.72140503 1504.0897522 C-438.17410991 1504.06631264 -445.62645524 1504.06871261 -453.07916641 1504.08817875 C-464.30480247 1504.11735853 -475.53015429 1504.10558633 -486.75579856 1504.08624072 C-505.57047526 1504.05491317 -524.38501959 1504.05517687 -543.19970703 1504.07481384 C-568.63974842 1504.10126459 -594.07944599 1504.08404213 -619.51953125 1504.05944824 C-680.67967629 1504.02241228 -741.83984592 1504.04618399 -803 1504.0625 C-939.62 1504.041875 -1076.24 1504.02125 -1217 1504 C-1217 1040.02 -1217 576.04 -1217 98 C-1150.67 98 -1084.34 98 -1016 98 C-1016 495.65 -1016 893.3 -1016 1303 C-839.78 1302.505 -839.78 1302.505 -660 1302 C-665.445 1296.06 -665.445 1296.06 -671 1290 C-672.84910621 1287.75887383 -674.67062534 1285.49401126 -676.4375 1283.1875 C-677.35462984 1281.9980506 -678.27262967 1280.8092716 -679.19140625 1279.62109375 C-679.6517627 1279.02409668 -680.11211914 1278.42709961 -680.58642578 1277.81201172 C-682.48494519 1275.37836559 -684.43331212 1272.98693734 -686.38061523 1270.59228516 C-693.0152952 1262.41301787 -699.22682828 1253.96669877 -705.31591797 1245.37548828 C-706.4447617 1243.78319348 -707.57663387 1242.19304162 -708.71142578 1240.60498047 C-753.05180983 1178.54346071 -787.35503721 1110.08754821 -812 1038 C-812.37189453 1036.91702637 -812.74378906 1035.83405273 -813.12695312 1034.71826172 C-840.30877925 954.86265877 -853.28027058 870.13817229 -853.1875 785.875 C-853.18689575 784.8422998 -853.1862915 783.80959961 -853.18566895 782.74560547 C-853.05710335 700.87754529 -840.06377124 619.86007752 -751.63476562 397.85498047 C-750.03927272 395.0685865 -748.46209843 392.2726545 -746.890625 389.47265625 C-741.03449371 379.06605076 -734.92060193 368.90896814 -728.30712891 358.96582031 C-727.03471787 357.05221298 -725.77221523 355.13240776 -724.51171875 353.2109375 C-710.53570917 331.98233147 -695.64014531 311.30556792 -679.42822266 291.72802734 C-677.39537731 289.26845822 -675.38702377 286.78911185 -673.375 284.3125 C-665.9126215 275.21900051 -658.3683263 266.25082241 -650.32299805 257.66455078 C-647.77906859 254.94730255 -645.29928442 252.19414963 -642.87573242 249.36865234 C-638.79459064 244.69736915 -634.45677677 240.31274106 -630.06640625 235.93359375 C-629.22963852 235.09586929 -628.39287079 234.25814484 -627.53074646 233.39503479 C-625.77131896 231.63493065 -624.01064347 229.87607323 -622.2487793 228.1184082 C-619.57030589 225.44529028 -616.89721127 222.76687749 -614.22460938 220.08789062 C-612.50552885 218.36947097 -610.78613811 216.65136158 -609.06640625 214.93359375 C-608.27657852 214.14174179 -607.48675079 213.34988983 -606.67298889 212.53404236 C-602.47498296 208.35350289 -598.20002544 204.32676971 -593.70477295 200.46665955 C-591.31332865 198.40923917 -589.00455766 196.26548561 -586.6875 194.125 C-581.80112002 189.67311345 -576.76464457 185.4669687 -571.61962891 181.31933594 C-569.81015192 179.84535137 -568.01966395 178.35009746 -566.23046875 176.8515625 C-555.44041985 167.83472598 -544.32562814 159.33134 -533 151 C-531.8850415 150.17483887 -531.8850415 150.17483887 -530.74755859 149.33300781 C-494.34919413 122.42880222 -455.4359098 99.26496697 -415 79 C-413.87480957 78.43539062 -412.74961914 77.87078125 -411.59033203 77.2890625 C-338.39317293 40.78153752 -259.20471703 17.41411943 -142 1 C-141.21500122 0.92587891 -140.43000244 0.85175781 -139.62121582 0.77539062 C-93.55335582 -3.52430693 -46.10945081 -4.16675833 0 0 Z M-128 339 C-129.18013672 339.17160645 -130.36027344 339.34321289 -131.57617188 339.52001953 C-222.32162307 353.07369811 -305.50593418 393.05739414 -373 455 C-373.54350098 455.49306641 -374.08700195 455.98613281 -374.64697266 456.49414062 C-424.32173213 501.60094939 -462.73630128 559.59740696 -487 622 C-487.3810791 622.97694824 -487.7621582 623.95389648 -488.15478516 624.96044922 C-502.09778549 661.13383186 -511.17030246 699.41207587 -515 738 C-515.10151367 738.97437012 -515.20302734 739.94874023 -515.30761719 740.95263672 C-524.20177493 829.29098265 -505.29581854 917.66835622 -420.52099609 1062.84472656 C-418.33909609 1065.50455223 -416.11195951 1068.11448494 -413.85205078 1070.70898438 C-412.01032287 1072.824275 -410.19246281 1074.95598648 -408.3972168 1077.11083984 C-401.15596191 1085.76435687 -393.45631208 1093.85500775 -385.4543457 1101.80639648 C-383.42877518 1103.82117835 -381.41421616 1105.84653275 -379.40039062 1107.87304688 C-372.23564373 1115.04507869 -364.9728828 1121.72783933 -357 1128 C-355.90950319 1128.92258844 -354.82491106 1129.85226746 -353.75 1130.79296875 C-286.09718268 1189.70089065 -196.65580396 1223.52026234 -108 1232 C-106.53361084 1232.14356934 -106.53361084 1232.14356934 -105.03759766 1232.29003906 C-93.08982454 1233.3043183 -81.10763432 1233.24369908 -69.125 1233.25 C-67.39307404 1233.25101212 -67.39307404 1233.25101212 -65.62615967 1233.25204468 C-46.89896844 1233.23470679 -28.56660591 1232.58710863 -10 1230 C-8.1447168 1229.74259033 -8.1447168 1229.74259033 -6.25195312 1229.47998047 C39.31066362 1222.92669408 83.43755727 1209.80289788 125 1190 C126.30565918 1189.3800415 126.30565918 1189.3800415 127.63769531 1188.74755859 C161.18967336 1172.69597356 193.26284049 1152.26045158 221.14746094 1127.58129883 C222.50628626 1126.42142645 223.89436026 1125.29559152 225.29785156 1124.19018555 C233.32929391 1117.84528631 240.49297411 1110.77898188 247.68994141 1103.51586914 C249.75497324 1101.43248256 251.82799396 1099.35730835 253.90234375 1097.28320312 C255.24266116 1095.93797176 256.58252091 1094.59228423 257.921875 1093.24609375 C258.83305084 1092.33324867 258.83305084 1092.33324867 259.76263428 1091.40196228 C325.88918867 1024.5537684 366.36954372 931.34850852 381.24581909 782.4022522 C380.67620758 680.23952826 344.9880031 575.52733779 277.5078125 497.91015625 C275.11882139 495.13788464 272.83740296 492.30355158 270.5625 489.4375 C266.74947843 484.74139085 262.62115256 480.5009872 258.30541992 476.27587891 C255.52685389 473.55116623 252.88000579 470.7901484 250.375 467.8125 C247.13772697 464.02271162 243.53880091 460.77428608 239.80078125 457.484375 C237.23648182 455.2097663 234.72487394 452.89151919 232.22216797 450.55004883 C226.02143265 444.75886487 219.67455352 439.2455145 213 434 C212.39736328 433.52481934 211.79472656 433.04963867 211.17382812 432.56005859 C146.80534413 381.98709954 71.91567725 350.75203884 -9 339 C-10.64162109 338.75008301 -10.64162109 338.75008301 -12.31640625 338.49511719 C-49.76054412 333.00133876 -90.57599054 333.40822016 -128 339 Z " fill="#106047" transform="translate(1687,419)"/>
<path d="M0 0 C91.74 0 183.48 0 278 0 C278 374.55 278 749.1 278 1135 C277.34 1135 276.68 1135 276 1135 C275.97873047 1136.15435547 275.97873047 1136.15435547 275.95703125 1137.33203125 C273.13678792 1205.24653954 240.97583021 1276.82151917 191 1323 C187.4373471 1326.14596835 183.76619173 1329.10177829 180 1332 C179.46068848 1332.42104004 178.92137695 1332.84208008 178.36572266 1333.27587891 C111.88542878 1384.93248172 23.62202795 1391.25491716 -57.53210509 1391.33474457 C-61.38684972 1391.3406622 -65.24155102 1391.35779614 -69.0962677 1391.37309265 C-78.32109164 1391.40726655 -87.54590993 1391.42334183 -96.7707831 1391.43721595 C-101.14541363 1391.44424438 -105.5200397 1391.4533849 -109.89466667 1391.46232414 C-124.47487063 1391.49142885 -139.05507046 1391.5162422 -153.63530064 1391.52694798 C-155.02420932 1391.52798402 -155.02420932 1391.52798402 -156.44117677 1391.52904099 C-157.83282431 1391.53007901 -157.83282431 1391.53007901 -159.25258595 1391.531138 C-161.13168816 1391.53254986 -163.01079037 1391.53397067 -164.88989258 1391.53540039 C-165.8219323 1391.53610556 -166.75397203 1391.53681073 -167.71425539 1391.53753727 C-182.84713285 1391.54981264 -197.97976128 1391.59270497 -213.11253525 1391.64834059 C-228.73951438 1391.70531768 -244.36636758 1391.73561044 -259.99345154 1391.73996013 C-268.73193037 1391.7430223 -277.4700599 1391.75717283 -286.20843697 1391.80124092 C-293.63715789 1391.83860924 -301.06543411 1391.85138088 -308.49423564 1391.83353604 C-312.27085292 1391.82517368 -316.04656487 1391.82741907 -319.82305908 1391.86135483 C-337.98020964 1392.01538381 -353.87751424 1390.31089144 -371 1384 C-371.71094067 1383.74359651 -372.42188133 1383.48719301 -373.15436566 1383.22301972 C-376.87141586 1381.87472254 -380.50609649 1380.40529492 -384.125 1378.8125 C-385.18992676 1378.35254639 -386.25485352 1377.89259277 -387.35205078 1377.41870117 C-402.60631513 1370.69300882 -417.46723943 1362.76800763 -431 1353 C-431.7125293 1352.49210937 -432.42505859 1351.98421875 -433.15917969 1351.4609375 C-442.96946595 1344.4541615 -452.25358236 1337.30758353 -461 1329 C-462.2652029 1327.91009629 -463.53578407 1326.8263944 -464.8125 1325.75 C-474.80691593 1317.03059186 -483.81991925 1307.42642417 -492 1297 C-492.92843252 1295.8702895 -493.85958146 1294.74280774 -494.79296875 1293.6171875 C-509.5986842 1275.65698971 -521.31634012 1255.80521832 -532.25 1235.3125 C-532.62592285 1234.61390869 -533.0018457 1233.91531738 -533.38916016 1233.19555664 C-540.25790621 1220.11754752 -545.28188237 1206.95250822 -549 1192.6875 C-549.20866699 1191.90251129 -549.41733398 1191.11752258 -549.63232422 1190.30874634 C-552.80659432 1178.34741298 -555.5720085 1166.32163377 -558 1154.1875 C-558.14179688 1153.48281586 -558.28359375 1152.77813171 -558.4296875 1152.05209351 C-559.89238451 1144.70896211 -561.17925509 1137.34569122 -562.1875 1129.92578125 C-562.34605469 1128.76087158 -562.50460938 1127.59596191 -562.66796875 1126.39575195 C-563.15500285 1119.94792184 -563 1113.46619791 -563 1107 C-515.48 1107 -467.96 1107 -419 1107 C-417.02 1120.86 -417.02 1120.86 -415 1135 C-408.79423057 1164.51933565 -398.61117833 1191.69095118 -379 1215 C-378.5565625 1215.58910156 -378.113125 1216.17820312 -377.65625 1216.78515625 C-366.0896366 1231.70185585 -346.74454008 1241.6940996 -329 1247 C-328.15654557 1247.25418166 -327.31309114 1247.50836332 -326.44407749 1247.77024746 C-316.2688346 1250.47233503 -306.39549025 1250.44524923 -295.93139648 1250.43579102 C-293.9323928 1250.44478416 -291.93339428 1250.45499594 -289.93440247 1250.46632385 C-284.53727906 1250.49267336 -279.14029862 1250.49985104 -273.74311709 1250.50177121 C-270.36068751 1250.50391284 -266.97829356 1250.51033492 -263.59587288 1250.51826286 C-251.76563359 1250.54596925 -239.93549527 1250.55827462 -228.10522461 1250.5559082 C-217.12671056 1250.55410841 -206.14863992 1250.5857272 -195.17023796 1250.63313919 C-185.70475253 1250.67254148 -176.23941097 1250.68845251 -166.7738443 1250.68654197 C-161.13827481 1250.685782 -155.50309967 1250.69405647 -149.86761284 1250.72607613 C-144.55917617 1250.75541741 -139.2515028 1250.75515709 -133.94303703 1250.73352623 C-132.01150885 1250.73042499 -130.0799306 1250.73725753 -128.14848709 1250.7556076 C-104.07101211 1250.96926734 -81.63448576 1242.91738549 -62 1229 C-60.49953125 1227.94425781 -60.49953125 1227.94425781 -58.96875 1226.8671875 C-31.2639975 1206.4920904 -14.77479095 1179.53835922 -4.90039062 1146.89160156 C-4.40143794 1145.28921663 -3.87948922 1143.6916934 -3.26850432 1142.12859112 C-0.98238378 1136.04660803 -0.58105866 1130.65596874 -0.63923645 1124.19895935 C-0.63667318 1123.14588012 -0.6341099 1122.09280089 -0.63146895 1121.00781018 C-0.6265484 1117.49780555 -0.64299581 1113.98823613 -0.65942383 1110.47827148 C-0.66027047 1107.95480866 -0.65979423 1105.43134509 -0.65809631 1102.90788269 C-0.65741433 1097.48462375 -0.66589413 1092.06150363 -0.68280983 1086.63827324 C-0.70725062 1078.7973441 -0.71501028 1070.95646725 -0.7187738 1063.11550415 C-0.72533034 1050.39232131 -0.7452698 1037.66919636 -0.77368164 1024.94604492 C-0.8012429 1012.59090463 -0.82246635 1000.23578009 -0.83520508 987.88061523 C-0.83638733 986.7371557 -0.83638733 986.7371557 -0.83759347 985.57059597 C-0.84150875 981.74610954 -0.84529983 977.921623 -0.84902918 974.09713638 C-0.88010024 942.39804847 -0.93313816 910.69903325 -1 879 C-1.33405853 879.64895233 -1.66811707 880.29790466 -2.01229858 880.96652222 C-3.55395986 883.956178 -5.10116043 886.94293452 -6.6484375 889.9296875 C-7.1736499 890.95022217 -7.6988623 891.97075684 -8.23999023 893.0222168 C-17.557518 910.9758519 -29.10177192 927.28564109 -43 942 C-43.75667969 942.82113281 -44.51335938 943.64226563 -45.29296875 944.48828125 C-53.97365766 953.59379996 -63.83513855 960.63299332 -75 966.375 C-75.59119629 966.68453613 -76.18239258 966.99407227 -76.79150391 967.31298828 C-90.9224943 974.23359849 -104.46069388 974.59275449 -119.85668945 974.56518555 C-122.14329291 974.57553468 -124.42988942 974.58752796 -126.71647644 974.60102844 C-132.89487018 974.63193431 -139.07303002 974.63735582 -145.25149179 974.63609672 C-150.43176888 974.63693112 -155.61199628 974.64920307 -160.79225796 974.66104633 C-173.7308221 974.68993348 -186.66923404 974.6929588 -199.60781916 974.68498889 C-210.78378072 974.67902195 -221.95930165 974.70933092 -233.13515351 974.75661161 C-244.66528618 974.80500238 -256.19515316 974.82610287 -267.7253949 974.8213008 C-274.17658529 974.81899448 -280.62732114 974.82698122 -287.07842445 974.86237144 C-293.15847642 974.89468378 -299.2376077 974.89224124 -305.31767464 974.86492729 C-307.52768622 974.86052779 -309.73776166 974.86765107 -311.94768143 974.88827133 C-375.73139538 975.44227768 -442.21323022 931.12346342 -486.08618164 888.08227539 C-492.84934174 881.38040569 -499.2188581 874.58131953 -505 867 C-505.93988755 865.80061147 -506.88000755 864.60140507 -507.8203125 863.40234375 C-537.03549093 825.74082496 -560.60793293 776.03935907 -560.36076355 727.77713013 C-560.36207398 725.85938828 -560.36470476 723.94164697 -560.36853105 722.0239085 C-560.37520132 716.78794245 -560.36329123 711.55216242 -560.34819686 706.31622005 C-560.33519059 700.65724518 -560.3396292 694.99828005 -560.34190369 689.33929443 C-560.34347353 679.54592548 -560.33409461 669.75261668 -560.31719017 659.95926285 C-560.29276544 645.7998839 -560.28499134 631.64053392 -560.2812262 617.48113619 C-560.27466716 594.50612282 -560.25474673 571.53114737 -560.22631836 548.55615234 C-560.19874171 526.24365399 -560.17755308 503.93116429 -560.16479492 481.61865234 C-560.163983 480.21427413 -560.16317088 478.80989591 -560.16235858 477.4055177 C-560.15610141 466.53150924 -560.15024933 455.65750058 -560.14449489 444.78349185 C-560.11621537 391.5222985 -560.05585536 338.26118536 -560 285 C-466.61 285 -373.22 285 -277 285 C-276.99742187 316.6490625 -276.99484375 348.298125 -276.9921875 380.90625 C-276.977244 400.93099897 -276.96082799 420.95573039 -276.9375 440.98046875 C-276.92609872 450.82979253 -276.91494183 460.67911653 -276.90447828 470.52844135 C-276.90235136 472.52946123 -276.90020147 474.53048108 -276.8980515 476.53150094 C-276.87574267 497.80159596 -276.87451966 519.0716338 -276.88111137 540.34174019 C-276.88740829 562.17822129 -276.87098415 584.01460049 -276.83356392 605.85105085 C-276.81119554 619.32025079 -276.8064503 632.78921841 -276.82440336 646.25842595 C-276.83502283 655.5006458 -276.82352897 664.74267518 -276.79483847 673.98485589 C-276.77894397 679.31344148 -276.77261485 684.64157369 -276.79260826 689.97015572 C-276.81073047 694.85765264 -276.80081457 699.74429531 -276.76946117 704.63171786 C-276.76296963 706.39106809 -276.76639033 708.15049188 -276.78125392 709.90979129 C-276.91067676 726.46565772 -272.01040328 739.04594599 -264.25 753.625 C-263.73123291 754.60645996 -263.21246582 755.58791992 -262.67797852 756.59912109 C-258.38570886 764.569072 -253.66812098 771.94754947 -248 779 C-247.55269531 779.55864746 -247.10539062 780.11729492 -246.64453125 780.69287109 C-223.32046302 809.54578883 -192.62665279 828.39266834 -155.40625 832.80151367 C-115.08212312 836.12776318 -85.37074471 826.52488253 -54.5625 800.875 C-34.2724574 783.47016467 -18.06710103 764.24068869 -7.1875 739.75 C-6.90938477 739.12488525 -6.63126953 738.49977051 -6.34472656 737.85571289 C-2.26321695 728.32929048 -0.5576528 719.88007635 -0.61523914 709.49378014 C-0.61008924 708.26323589 -0.60493933 707.03269165 -0.59963337 705.76485819 C-0.5883921 702.36014555 -0.59047795 698.95592079 -0.59826221 695.55123052 C-0.60342119 691.84324291 -0.59115881 688.13530546 -0.58113068 684.42733347 C-0.56595293 677.93250471 -0.56183788 671.43774245 -0.56500816 664.9428978 C-0.5696719 655.28535503 -0.55717403 645.62788749 -0.54117843 635.97035955 C-0.514755 619.72398828 -0.5022216 603.47763406 -0.49761391 587.23124313 C-0.49300651 571.14609029 -0.48221973 555.06096113 -0.46318626 538.97581863 C-0.46200614 537.97556366 -0.46082601 536.97530868 -0.45961012 535.94474294 C-0.45358467 530.86491999 -0.44744888 525.78509718 -0.44127061 520.70527442 C-0.39771238 484.72816446 -0.36799973 448.75105508 -0.34643555 412.77392578 C-0.32545499 377.8233963 -0.29819918 342.87288091 -0.26245117 307.92236328 C-0.26135169 306.84497017 -0.26025222 305.76757707 -0.25911942 304.65753569 C-0.24807105 293.83787702 -0.23689515 283.01821848 -0.2256258 272.19856004 C-0.20267189 250.15781559 -0.18056923 228.1170703 -0.15898132 206.07632446 C-0.1579877 205.06293436 -0.15699409 204.04954426 -0.15597036 203.00544536 C-0.12556059 171.94490686 -0.09875868 140.88436671 -0.07551575 109.82382202 C-0.07452383 108.50109866 -0.07452383 108.50109866 -0.07351188 107.1516536 C-0.04678216 71.43443729 -0.02387109 35.71721831 0 0 Z " fill="#106047" transform="translate(3074,537)"/>
<path d="M0 0 C1.11393127 0.00323273 1.11393127 0.00323273 2.25036621 0.00653076 C14.15165815 0.06174459 25.67837953 0.66041059 37.3125 3.3125 C38.17665527 3.50585938 39.04081055 3.69921875 39.93115234 3.8984375 C70.31086528 10.92289922 97.47056332 25.18397217 120.27734375 46.4296875 C121.97159563 47.99711438 123.68949061 49.44739207 125.5 50.875 C129.17906507 54.06352306 132.2165414 57.56288412 135.3125 61.3125 C136.13878906 62.30121094 136.96507812 63.28992187 137.81640625 64.30859375 C161.10317811 92.70196623 177.17035891 129.72889301 177.55078125 166.81640625 C177.5605751 167.60875168 177.57036896 168.40109711 177.58045959 169.217453 C177.75073336 186.56619852 177.7333256 203.40834692 173.3125 220.3125 C173.10351074 221.11913086 172.89452148 221.92576172 172.67919922 222.75683594 C164.31547161 253.84358979 148.38426071 280.13547661 126.3125 303.3125 C125.33216797 304.37210938 125.33216797 304.37210938 124.33203125 305.453125 C97.82546762 333.25958408 59.79475154 349.12765869 22.3125 354.3125 C21.22324219 354.46332031 20.13398437 354.61414062 19.01171875 354.76953125 C16.10245464 355.07815191 13.23723348 355.22679352 10.3125 355.3125 C9.60432129 355.33828125 8.89614258 355.3640625 8.16650391 355.390625 C-40.72857138 356.98427178 -86.47562828 340.00445958 -122.33154297 306.78955078 C-156.9906743 274.16380938 -175.76371053 229.29377984 -177.56201172 182.04077148 C-178.73688356 137.41223586 -163.26058789 93.83541813 -133.6875 60.3125 C-133.25050781 59.81524414 -132.81351563 59.31798828 -132.36328125 58.80566406 C-126.83729512 52.54829741 -121.21460324 46.54573498 -114.6875 41.3125 C-113.23923828 40.14267578 -113.23923828 40.14267578 -111.76171875 38.94921875 C-104.42403486 33.11486522 -96.82155075 27.99574134 -88.6875 23.3125 C-87.56085938 22.65507813 -86.43421875 21.99765625 -85.2734375 21.3203125 C-59.197467 6.51489192 -29.82920287 -0.15697813 0 0 Z " fill="#F47621" transform="translate(1608.6875,1020.6875)"/>
<path d="M0 0 C93.39 0 186.78 0 283 0 C283 94.71 283 189.42 283 287 C189.61 287 96.22 287 0 287 C0 192.29 0 97.58 0 0 Z " fill="#106047" transform="translate(2519,524)"/>
<path d="M0 0 C0.87255053 0.00291284 1.74510105 0.00582568 2.6440925 0.00882679 C4.02357306 0.00754515 4.02357306 0.00754515 5.43092191 0.00623763 C8.53723064 0.00458 11.64348631 0.01010879 14.74979013 0.01555592 C16.9666582 0.01583776 19.18352636 0.01568013 21.40039438 0.01511341 C27.43940687 0.0148253 33.47839969 0.02072421 39.5174076 0.02768737 C45.82085519 0.03391867 52.12430319 0.03452453 58.42775339 0.03571278 C69.01443182 0.03847247 79.60110376 0.04472799 90.18777841 0.05364186 C101.09402804 0.06281528 112.00027571 0.06989645 122.90652841 0.07414967 C123.57833969 0.07441239 124.25015098 0.07467512 124.94232018 0.0749458 C128.31246556 0.0762508 131.68261096 0.07751452 135.05275637 0.0787577 C163.02916526 0.0892236 191.00556605 0.10682433 218.98196787 0.12908131 C219.23510185 0.7504985 219.48823583 1.37191569 219.74904054 2.0121637 C222.1868526 7.9966959 224.62473931 13.98119769 227.06270105 19.96566892 C228.31474875 23.03908063 229.56676365 26.11250569 230.81872934 29.18595082 C240.0400136 51.82315493 249.27459512 74.45491408 258.51419443 97.08464772 C261.00124827 103.1761185 263.48777655 109.26780372 265.97415537 115.35955006 C266.38787393 116.37317616 266.8015925 117.38680226 267.22784799 118.4311443 C269.30104951 123.51061165 271.37419359 128.59010244 273.4472999 133.66960865 C277.34471858 143.21885773 281.24262253 152.76790791 285.14212412 162.31630665 C286.97986856 166.81632498 288.81735389 171.31644909 290.65481943 175.81658131 C291.52903891 177.95742195 292.40338471 180.09821101 293.2778663 182.23894459 C294.4920557 185.21130661 295.70580555 188.18384779 296.91946787 191.15642506 C297.4493934 192.45319424 297.4493934 192.45319424 297.99002451 193.77616078 C298.65708031 195.41041753 299.32227546 197.04543528 299.98538584 198.68129689 C300.69019725 200.41244028 301.4036157 202.14009116 302.12308115 203.86519581 C302.49030283 204.75608906 302.85752451 205.64698231 303.23587412 206.56487232 C303.5704664 207.368205 303.90505869 208.17153767 304.24979013 208.99921376 C304.98196787 211.12908131 304.98196787 211.12908131 304.98196787 214.12908131 C172.98196787 214.12908131 40.98196787 214.12908131 -95.01803213 214.12908131 C-93.8931061 207.37952508 -93.8931061 207.37952508 -92.44601065 203.99944264 C-92.12307028 203.23603062 -91.80012991 202.4726186 -91.46740347 201.68607289 C-91.11414999 200.86933598 -90.76089651 200.05259907 -90.39693838 199.21111256 C-90.02579916 198.33826115 -89.65465994 197.46540974 -89.27227408 196.56610829 C-88.46870449 194.67830367 -87.66215755 192.7917642 -86.85296255 190.90636402 C-85.5598351 187.8933569 -84.27432577 184.8772036 -82.99093252 181.86003834 C-81.657428 178.7251346 -80.32352141 175.5904107 -78.98731619 172.45665699 C-74.97114288 163.03611025 -71.00624402 153.59462198 -67.05880362 144.14510304 C-65.94636452 141.48213578 -64.83292195 138.81959013 -63.71920401 136.15715748 C-61.4846306 130.81482039 -59.25121795 125.47199856 -57.01803213 120.12908131 C-54.03982001 113.0036819 -51.06098969 105.87854182 -48.08053213 98.75408131 C-47.71246451 97.87423573 -47.34439688 96.99439015 -46.96517569 96.08788258 C-40.28225881 80.11663952 -33.55535535 64.16413274 -26.81173331 48.21843678 C-23.1813741 39.63258615 -19.55782954 31.04415635 -15.96725088 22.44158131 C-15.65758887 21.70022938 -15.34792685 20.95887745 -15.02888113 20.19506031 C-13.60302893 16.7808354 -12.17969178 13.36560377 -10.76095206 9.94841725 C-10.27602286 8.78600514 -9.79109366 7.62359303 -9.29146963 6.42595631 C-8.87300772 5.41887623 -8.45454581 4.41179615 -8.02340323 3.3741985 C-6.172405 -0.75930798 -4.33243983 0.0109781 0 0 Z " fill="#F47621" transform="translate(849.0180321335793,303.8709186911583)"/>
<path d="M0 0 C0.99 0.78890625 1.98 1.5778125 3 2.390625 C5.6913178 4.56558531 8.34713336 6.77836858 11 9 C11.98097656 9.79535156 12.96195313 10.59070313 13.97265625 11.41015625 C22.01367266 18.01921083 29.44061939 25.226325 36.8125 32.5625 C37.54430481 33.28654022 37.54430481 33.28654022 38.29089355 34.02520752 C44.24503898 39.92948867 49.81889927 46.01971845 55.05883789 52.57299805 C56.62313046 54.52880642 58.21251377 56.43801827 59.86328125 58.3203125 C67.2405316 66.76826426 73.72041952 75.71344261 80 85 C80.47469727 85.7017334 80.94939453 86.4034668 81.43847656 87.12646484 C91.90123063 102.70490551 100.9199267 119.07088024 109 136 C109.35416992 136.73879395 109.70833984 137.47758789 110.07324219 138.23876953 C131.00029102 182.26314808 143.97959412 232.41114911 144.203125 281.30859375 C144.21013931 282.34540787 144.21715363 283.38222198 144.22438049 284.45045471 C144.24178293 287.77951458 144.24823328 291.10839631 144.25 294.4375 C144.25101212 296.14715942 144.25101212 296.14715942 144.25204468 297.89135742 C144.23553412 315.45611931 143.73168452 332.61849126 141 350 C140.74259033 351.66530762 140.74259033 351.66530762 140.47998047 353.36425781 C128.71494078 427.1086621 94.9831514 501.83035157 40.69140625 554.30859375 C39.01376233 555.98623767 37.50832804 557.73239531 36 559.5625 C33.38536362 562.67085761 30.52939967 565.25322107 27.43359375 567.875 C25.56493219 569.50670448 23.76302189 571.1606902 21.97265625 572.875 C13.81564894 580.67080258 5.28673038 587.67441072 -3.79248047 594.37060547 C-5.99660524 595.99749429 -8.18771431 597.6409077 -10.37890625 599.28515625 C-28.14730304 612.49694902 -47.24248935 623.07364504 -67 633 C-67.75345703 633.38140137 -68.50691406 633.76280273 -69.28320312 634.15576172 C-154.1956961 676.82842095 -258.35242673 681.03899973 -348.01049805 651.50170898 C-384.84289954 638.96338334 -419.79133216 621.28235953 -451 598 C-451.54317871 597.59571777 -452.08635742 597.19143555 -452.64599609 596.77490234 C-475.11330935 579.96937867 -497.73783213 560.76492133 -514.98828125 538.56640625 C-516.85604764 536.18364408 -518.81496214 533.90898894 -520.81396484 531.63623047 C-576.30061789 468.06229418 -604.1841756 380.00364391 -604.25 296.5625 C-604.25100708 295.66870636 -604.25201416 294.77491272 -604.25305176 293.85403442 C-604.24036675 277.06636043 -603.2120993 260.65212511 -601 244 C-600.79914795 242.4516748 -600.79914795 242.4516748 -600.59423828 240.87207031 C-592.38997955 179.99149827 -567.41839708 119.06561956 -529.40869141 70.79394531 C-527.98939529 68.98649508 -526.59252969 67.16347021 -525.19921875 65.3359375 C-519.93057218 58.46814539 -514.39137753 51.97110617 -508.47265625 45.65625 C-506.48316736 43.51904234 -504.57155725 41.35375946 -502.6875 39.125 C-494.86251912 30.10926116 -486.14474637 21.66367634 -477 14 C-476.11957031 13.23042969 -475.23914062 12.46085938 -474.33203125 11.66796875 C-448.93781887 -10.42097834 -420.40797192 -28.62114777 -390 -43 C-389.26555664 -43.35126953 -388.53111328 -43.70253906 -387.77441406 -44.06445312 C-294.62423736 -88.35472582 -184.03321532 -89.9955832 0 0 Z M-386 -25 C-387.45889648 -24.27876953 -387.45889648 -24.27876953 -388.94726562 -23.54296875 C-413.39011631 -11.37771542 -436.16105307 3.32685179 -457 21 C-457.95648437 21.77214844 -458.91296875 22.54429687 -459.8984375 23.33984375 C-468.350268 30.24913983 -476.08366771 37.86788235 -483.8125 45.5625 C-484.61605927 46.35829468 -484.61605927 46.35829468 -485.43585205 47.17016602 C-492.429914 54.11093222 -498.8820682 61.25927462 -505 69 C-506.01253644 70.23171214 -507.02777182 71.46121555 -508.046875 72.6875 C-551.48624718 125.64298646 -577.3317991 191.18434833 -585 259 C-585.103125 259.87172852 -585.20625 260.74345703 -585.3125 261.64160156 C-588.16505877 289.7494932 -587.58331987 320.13769788 -583 348 C-582.80132324 349.22170898 -582.60264648 350.44341797 -582.39794922 351.70214844 C-572.9671065 407.89160388 -551.09824946 461.25105626 -517 507 C-516.60103516 507.53786133 -516.20207031 508.07572266 -515.79101562 508.62988281 C-498.01186065 532.49288711 -477.41333632 554.59310051 -454 573 C-452.63918399 574.09097257 -451.27851906 575.18213359 -449.91796875 576.2734375 C-439.99156543 584.17723306 -429.82029786 591.37589737 -419 598 C-418.33210449 598.41169434 -417.66420898 598.82338867 -416.97607422 599.24755859 C-376.37290514 624.13782369 -332.1837768 640.51810611 -285.1875 648.25 C-284.27137939 648.40122314 -283.35525879 648.55244629 -282.41137695 648.70825195 C-265.16093346 651.36643828 -247.93756797 652.38264617 -230.5 652.3125 C-229.54844025 652.31067719 -228.59688049 652.30885437 -227.6164856 652.30697632 C-144.40867723 652.04044324 -61.70935382 622.05088388 1 567 C2.09828125 566.05060547 2.09828125 566.05060547 3.21875 565.08203125 C5.15761671 563.40091071 7.08008594 561.70271166 9 560 C9.73089844 559.36191406 10.46179687 558.72382812 11.21484375 558.06640625 C21.40119847 549.06873474 31.3502237 539.5020153 40 529 C40.44102051 528.47277344 40.88204102 527.94554687 41.33642578 527.40234375 C103.04292325 453.55392158 133.60035163 360.18939156 125.6875 264.1875 C121.82883337 221.69623051 110.29982437 180.499839 92 142 C91.42427246 140.77482666 91.42427246 140.77482666 90.83691406 139.52490234 C81.51397375 119.79613231 69.929033 101.55175495 57 84 C56.36481445 83.1352002 56.36481445 83.1352002 55.71679688 82.25292969 C41.46285419 62.97283447 25.04673714 44.78729257 7 29 C6.19876709 28.289646 6.19876709 28.289646 5.38134766 27.56494141 C-12.61326566 11.62745508 -32.20432783 -1.98417714 -53 -14 C-54.09127197 -14.63591064 -54.09127197 -14.63591064 -55.20458984 -15.28466797 C-139.83741729 -64.30901691 -245.12982193 -74.25551801 -386 -25 Z " fill="#F47621" transform="translate(1844,899)"/>
<path d="M0 0 C12.21 0 24.42 0 37 0 C69.663746 100.97984771 69.663746 100.97984771 79 135 C80.91002961 131.55759869 81.92193062 128.06871009 82.97192383 124.2824707 C83.36002748 122.89743811 83.74827391 121.51244552 84.13664246 120.12748718 C84.34079458 119.39411322 84.54494671 118.66073925 84.75528526 117.90514183 C90.11763084 98.67975958 95.97754752 79.62140452 101.94055176 60.57550049 C102.94530895 57.36328238 103.94641751 54.14993248 104.94740105 50.93653679 C110.24201093 33.93960613 115.57998809 16.95743588 121 0 C133.21 0 145.42 0 158 0 C158 66.99 158 133.98 158 203 C148.1 203 138.2 203 128 203 C127.93109874 189.9737745 127.87655546 176.94767799 127.84456348 163.92130852 C127.82917747 157.86690154 127.80846343 151.81262987 127.77368164 145.75830078 C127.59619801 114.03879035 128.41787195 82.62047432 131 51 C130.75384068 51.81499324 130.75384068 51.81499324 130.50270844 52.646451 C121.17855807 83.51125871 111.4768265 114.23343251 101.50341797 144.89355469 C101.27182354 145.60571986 101.04022911 146.31788504 100.80161667 147.05163097 C99.71517229 150.39211058 98.62751711 153.73217886 97.53747559 157.07148743 C94.62000607 166.02629824 91.79648038 175.00679448 89 184 C82.4 184 75.8 184 69 184 C65.61874316 175.86481008 62.81115278 167.59229128 60.10546875 159.21484375 C59.63609798 157.76931266 59.16651883 156.32384923 58.69674683 154.87844849 C57.4464388 151.02736688 56.20113745 147.1746849 54.9573555 143.32149124 C54.18619863 140.93347008 53.41369202 138.54588934 52.64083862 136.15841675 C43.80647429 108.85864572 35.24942104 81.48281184 27 54 C27.14414551 57.0209218 27.29030594 60.04172632 27.4375 63.0625 C27.47681641 63.89072266 27.51613281 64.71894531 27.55664062 65.57226562 C27.74543335 69.42073267 27.93937503 73.262 28.25486755 77.10255432 C29.27438214 89.85979154 29.12553379 102.61283713 29.09765625 115.40234375 C29.09578778 117.93681307 29.09436591 120.47128275 29.09336853 123.00575256 C29.08996294 128.95514398 29.08211168 134.90451861 29.07201904 140.85390145 C29.06076555 147.63767261 29.05532439 154.42144476 29.05032361 161.20522296 C29.03992594 175.13682757 29.02161793 189.06840852 29 203 C19.43 203 9.86 203 0 203 C0 136.01 0 69.02 0 0 Z M25 47 C26 49 26 49 26 49 Z " fill="#F47621" transform="translate(2815,2206)"/>
<path d="M0 0 C12.87 0 25.74 0 39 0 C40.28910278 4.51578735 40.28910278 4.51578735 41.60424805 9.12280273 C45.63100744 23.2279849 49.6589338 37.33283377 53.6875 51.4375 C53.95974679 52.39068949 53.95974679 52.39068949 54.23749352 53.36313534 C65.83541662 93.96936336 77.46049056 134.56764239 89.1622467 175.14408875 C89.79210461 177.32877091 90.42042088 179.51389829 91.04699707 181.69952393 C91.73119953 184.06907997 92.42606536 186.4355668 93.12780762 188.79998779 C93.49523071 190.04983459 93.86265381 191.2996814 94.24121094 192.58740234 C94.57763611 193.71947113 94.91406128 194.85153992 95.26068115 196.01791382 C96 199 96 199 96 203 C84.78 203 73.56 203 62 203 C58.77919004 191.6752166 55.749973 180.30818349 52.80880737 168.90811157 C52.39402391 167.30046146 51.97843318 165.69301942 51.56204224 164.08578491 C50.96971199 161.79744348 50.38079077 159.50825311 49.79296875 157.21875 C49.61194611 156.52050613 49.43092346 155.82226227 49.24441528 155.1028595 C48 150.22972009 48 150.22972009 48 148 C28.53 148 9.06 148 -11 148 C-11.495 151.96 -11.495 151.96 -12 156 C-12.36678239 157.74934315 -12.76831844 159.49201249 -13.21508789 161.22265625 C-13.45526138 162.16302734 -13.69543488 163.10339844 -13.94288635 164.07226562 C-14.20021042 165.05904297 -14.45753448 166.04582031 -14.72265625 167.0625 C-14.98759384 168.09439453 -15.25253143 169.12628906 -15.52549744 170.18945312 C-16.36654742 173.46084539 -17.21441353 176.73042565 -18.0625 180 C-18.63651999 182.22774809 -19.21009242 184.45561156 -19.78320312 186.68359375 C-21.18279583 192.12397871 -22.59160585 197.56185668 -24 203 C-35.22 203 -46.44 203 -58 203 C-55.36865043 192.47460173 -52.65459251 182.03884353 -49.6328125 171.62890625 C-49.20443081 170.14465813 -48.77634047 168.6603259 -48.34851074 167.17591858 C-47.42699346 163.9803029 -46.50386524 160.78515911 -45.57940674 157.59039307 C-43.3069272 149.73656819 -41.04261045 141.88038873 -38.77842331 134.02416992 C-38.23533171 132.13980318 -37.69214051 130.25546514 -37.1488533 128.37115479 C-32.3530552 111.73571568 -27.59264601 95.09028934 -22.84375 78.44140625 C-22.1533942 76.0216718 -21.46303573 73.60193812 -20.77267456 71.1822052 C-17.70636296 60.43346117 -14.6416407 49.68426745 -11.58024216 38.93412304 C-10.30627861 34.46211205 -9.03073911 29.99055164 -7.75480652 25.5191021 C-7.15624382 23.42003363 -6.55840569 21.3207584 -5.96131897 19.22126961 C-5.14347997 16.34573052 -4.32325256 13.47088326 -3.50244141 10.59619141 C-3.26159883 9.7470646 -3.02075626 8.89793779 -2.77261543 8.02307987 C-1.11400281 2.22800562 -1.11400281 2.22800562 0 0 Z M18 29 C17.86964859 29.57373856 17.73929718 30.14747711 17.60499573 30.73860168 C15.93165065 38.0982854 14.24959052 45.45595543 12.5625 52.8125 C12.15807678 54.57616409 12.15807678 54.57616409 11.7454834 56.37545776 C7.93503231 72.95840145 3.96105238 89.4821096 -0.40795898 105.92700195 C-0.58550217 106.59910706 -0.76304535 107.27121216 -0.94596863 107.96368408 C-1.41477578 109.7340845 -1.88926479 111.50297771 -2.36425781 113.27172852 C-3.11347016 116.02006054 -3.11347016 116.02006054 -3 119 C11.52 119 26.04 119 41 119 C38.30356391 107.85526773 38.30356391 107.85526773 35.60546875 96.7109375 C34.49932738 92.14367791 33.39335054 87.57637907 32.28857422 83.00878906 C27.92955771 64.98791472 23.53733565 46.97703453 19 29 C18.67 29 18.34 29 18 29 Z " fill="#106047" transform="translate(857,2206)"/>
<path d="M0 0 C4.48607223 3.56981875 8.2754821 7.08519102 11.7578125 11.65625 C6.84315184 19.68405583 1.49281679 27.20464579 -4.2421875 34.65625 C-7.61774973 34.03329216 -8.4031908 33.50924699 -11.1171875 31.03125 C-21.00804804 22.1871544 -33.85614869 18.12355018 -46.91796875 18.3359375 C-53.85278656 19.00415731 -61.50073901 21.34008048 -66.2421875 26.65625 C-70.01307236 32.73711399 -71.21731506 38.5718895 -70.2421875 45.65625 C-68.67264236 51.47147119 -65.43540436 56.14288957 -60.4855957 59.55834961 C-49.49507051 65.67885134 -38.19352885 71.09251977 -26.81469727 76.44995117 C-8.19757133 85.23530599 -8.19757133 85.23530599 -1.2421875 91.65625 C-0.3759375 92.44 0.4903125 93.22375 1.3828125 94.03125 C12.43812869 106.25028368 17.17605064 118.4871946 17.0703125 134.96875 C17.06467285 135.89228271 17.0590332 136.81581543 17.05322266 137.76733398 C16.76922292 153.77395305 11.02788077 168.0937059 -0.2421875 179.65625 C-14.8643016 192.30060095 -33.11149164 197.67727028 -52.2421875 196.65625 C-71.35535789 195.03255834 -88.61637122 188.07855347 -103.2421875 175.65625 C-103.99886719 175.04394531 -104.75554688 174.43164062 -105.53515625 173.80078125 C-111.82721398 168.57781652 -111.82721398 168.57781652 -112.2421875 164.65625 C-111.1340332 162.64501953 -111.1340332 162.64501953 -109.41796875 160.5390625 C-108.49274414 159.38083984 -108.49274414 159.38083984 -107.54882812 158.19921875 C-106.89076172 157.40128906 -106.23269531 156.60335937 -105.5546875 155.78125 C-104.27813563 154.20198402 -103.00335467 152.62128471 -101.73046875 151.0390625 C-101.1267041 150.29172852 -100.52293945 149.54439453 -99.90087891 148.77441406 C-97.85042661 146.15596777 -96.02430864 143.46252684 -94.2421875 140.65625 C-91.25980987 141.97747536 -89.44477514 143.34030123 -87.3046875 145.78125 C-77.34521301 156.0185639 -63.1580743 162.60945363 -48.90893555 162.94824219 C-39.37042381 163.03133199 -32.62153455 161.93063516 -24.3671875 156.90625 C-18.83013515 151.04348869 -16.91046098 143.92733052 -17.02734375 136.03125 C-17.49059848 130.91017957 -19.14421102 127.01257388 -22.3671875 123.03125 C-29.01373996 117.54061971 -36.24924588 113.45115501 -43.9921875 109.72265625 C-45.8360374 108.8172607 -47.67978428 107.91165535 -49.5234375 107.00585938 C-52.38495546 105.60920113 -55.24804162 104.21591205 -58.11328125 102.8269043 C-60.91071895 101.46775825 -63.70164207 100.09588533 -66.4921875 98.72265625 C-67.75820801 98.11605919 -67.75820801 98.11605919 -69.04980469 97.49720764 C-75.04185601 94.53834216 -80.1061984 90.91813748 -85.2421875 86.65625 C-86.08910156 85.96660156 -86.93601562 85.27695313 -87.80859375 84.56640625 C-97.77284081 75.34314038 -103.83963013 62.0151725 -104.44921875 48.53515625 C-104.9406309 32.30137296 -101.81819437 17.81450824 -90.8046875 5.28125 C-89.30232222 3.72158058 -87.78298796 2.1779609 -86.2421875 0.65625 C-85.68917969 0.08132812 -85.13617187 -0.49359375 -84.56640625 -1.0859375 C-61.94632837 -22.75181855 -23.16620884 -17.22140325 0 0 Z " fill="#F47621" transform="translate(3335.2421875,2216.34375)"/>
<path d="M0 0 C35.97 0 71.94 0 109 0 C109 10.23 109 20.46 109 31 C83.92 31 58.84 31 33 31 C33 49.48 33 67.96 33 87 C54.12 87 75.24 87 97 87 C97 97.23 97 107.46 97 118 C75.88 118 54.76 118 33 118 C33 146.05 33 174.1 33 203 C22.11 203 11.22 203 0 203 C0 136.01 0 69.02 0 0 Z " fill="#F47621" transform="translate(1809,2206)"/>
<path d="M0 0 C11.55 0 23.1 0 35 0 C40.55358745 13.70173187 45.80447426 27.46620176 50.8125 41.375 C51.85537074 44.25939722 52.89941333 47.14336871 53.94345093 50.02734375 C54.63641741 51.94191236 55.32898753 53.85662448 56.02114868 55.77148438 C59.15521699 64.44039617 62.32149758 73.09729768 65.5 81.75 C65.96721588 83.02261925 66.43442011 84.29524279 66.90161133 85.56787109 C67.9338591 88.37878281 68.96659543 91.18951342 70 94 C81.77860742 62.70798537 93.40468105 31.3603347 105 0 C116.55 0 128.1 0 140 0 C135.19306357 12.11369393 130.29148314 24.16739322 125.15969849 36.14648438 C123.32081187 40.44027514 121.49047198 44.73770643 119.66015625 49.03515625 C119.28022018 49.92703644 118.90028412 50.81891663 118.50883484 51.73782349 C114.15251699 61.97474378 109.85431348 72.23590452 105.5625 82.5 C105.2040802 83.35691437 104.8456604 84.21382874 104.47637939 85.09671021 C103.95174103 86.35123489 103.95174103 86.35123489 103.41650391 87.63110352 C102.89475082 88.87483482 102.89475082 88.87483482 102.36245728 90.14369202 C101.66087623 91.82885173 100.96807072 93.51768994 100.28378296 95.20994568 C98.46753978 99.67032349 96.52900674 103.96767756 94.28125 108.22851562 C85.13045379 126.32780807 85.61017051 144.07797751 85.84979248 163.87866211 C85.89989347 169.0886796 85.87400704 174.29886173 85.86157227 179.5090332 C85.85103134 187.34093878 85.93407614 195.16669465 86 203 C75.11 203 64.22 203 53 203 C53.13664062 197.85664063 53.27328125 192.71328125 53.4140625 187.4140625 C54.39306396 135.44127505 54.39306396 135.44127505 36.37744141 87.37255859 C32.80422031 80.9705747 30.15527796 74.19294991 27.44564819 67.39282227 C25.98837553 63.75384539 24.47705339 60.13758394 22.96875 56.51953125 C22.50984627 55.41449753 22.50984627 55.41449753 22.04167175 54.28713989 C19.33904173 47.7867498 16.59373525 41.30469175 13.84375 34.82421875 C13.40506088 33.78953964 12.96637177 32.75486053 12.51438904 31.68882751 C10.34471659 26.57219592 8.17135302 21.45718208 5.99243164 16.34448242 C5.2044355 14.48753294 4.41658628 12.63052109 3.62890625 10.7734375 C3.26095947 9.91380905 2.8930127 9.0541806 2.51391602 8.16850281 C2.18133789 7.38248184 1.84875977 6.59646088 1.50610352 5.78662109 C1.21381363 5.10022552 0.92152374 4.41382996 0.62037659 3.70663452 C0 2 0 2 0 0 Z " fill="#106047" transform="translate(1164,2206)"/>
<path d="M0 0 C10.89 0 21.78 0 33 0 C33 56.76 33 113.52 33 172 C57.42 172 81.84 172 107 172 C107 182.23 107 192.46 107 203 C71.69 203 36.38 203 0 203 C0 136.01 0 69.02 0 0 Z " fill="#F47621" transform="translate(2460,2206)"/>
<path d="M0 0 C10.56 0 21.12 0 32 0 C32 56.76 32 113.52 32 172 C56.42 172 80.84 172 106 172 C106 182.23 106 192.46 106 203 C71.02 203 36.04 203 0 203 C0 136.01 0 69.02 0 0 Z " fill="#106047" transform="translate(469,2206)"/>
<path d="M0 0 C10.56 0 21.12 0 32 0 C32 66.99 32 133.98 32 203 C21.44 203 10.88 203 0 203 C0 136.01 0 69.02 0 0 Z " fill="#F47621" transform="translate(2166,2206)"/>
</svg>
